mtllib ./tile-hill_2.mtl
g tile-hill
v -15 1.490136E-06 15.00001
v -15 5.999999 -15
v 14.99999 5.999999 -15
v 15 1.490136E-06 15.00001
v -15 5.999999 -15
v -15 3.999998 -15
v 14.99999 3.999998 -15
v 14.99999 5.999999 -15
v 15 1.490136E-06 15.00001
v 15 -1.999997 15.00001
v -15 -1.999997 15.00001
v -15 1.490136E-06 15.00001
v -15 1.490136E-06 15.00001
v -15 -1.999997 15.00001
v -15 3.999998 -15
v -15 5.999999 -15
v 14.99999 5.999999 -15
v 14.99999 3.999998 -15
v 15 -1.999997 15.00001
v 15 1.490136E-06 15.00001
v 14.99999 3.999998 -15
v 14.99999 5.722046E-06 -15
v 15 -5.999991 15.00001
v 15 -1.999997 15.00001
v -15 -1.999997 15.00001
v 15 -1.999997 15.00001
v 15 -5.999991 15.00001
v -14.99999 -5.99999 15.00001
v -15 3.999998 -15
v -15 5.722046E-06 -15
v 14.99999 5.722046E-06 -15
v 14.99999 3.999998 -15
v -15 -1.999997 15.00001
v -14.99999 -5.99999 15.00001
v -15 5.722046E-06 -15
v -15 3.999998 -15

vn 0 0.9805807 0.196116
vn 0 0.9805807 0.196116
vn 0 0.9805807 0.196116
vn 0 0.9805807 0.196116
vn -1.11262E-07 0 -1
vn -1.11262E-07 0 -1
vn -1.11262E-07 0 -1
vn -1.11262E-07 0 -1
vn 1.11262E-07 0 1
vn 1.11262E-07 0 1
vn 1.11262E-07 0 1
vn 1.11262E-07 0 1
vn -1 0 1.271565E-07
vn -1 0 1.271565E-07
vn -1 0 1.271565E-07
vn -1 0 1.271565E-07
vn 1 0 -1.271566E-07
vn 1 0 -1.271566E-07
vn 1 0 -1.271566E-07
vn 1 0 -1.271566E-07
vn 1 4.76838E-07 -1.907351E-07
vn 1 4.76838E-07 -1.907351E-07
vn 1 4.76838E-07 -1.907351E-07
vn 1 4.76838E-07 -1.907351E-07
vn 0 -4.768384E-07 1
vn 0 -4.768384E-07 1
vn 0 -4.768384E-07 1
vn 0 -4.768384E-07 1
vn 0 0 -1
vn 0 0 -1
vn 0 0 -1
vn 0 0 -1
vn -1 -7.152569E-07 0
vn -1 -7.152569E-07 0
vn -1 -7.152569E-07 0
vn -1 -7.152569E-07 0

vt 0.3886091 0.3890613
vt 0.3886091 0.4885493
vt 0.486165 0.4885493
vt 0.4861651 0.3890613
vt 0.3886091 0.4885493
vt 0.3886091 0.4950531
vt 0.486165 0.4950531
vt 0.486165 0.4885493
vt 0.4861651 0.3890613
vt 0.4861651 0.3825575
vt 0.3886091 0.3825576
vt 0.3886091 0.3890613
vt 0.3886091 0.3890613
vt 0.3822317 0.3877858
vt 0.3822317 0.4872738
vt 0.3886091 0.4885493
vt 0.486165 0.4885493
vt 0.4925426 0.4872738
vt 0.4925425 0.3877858
vt 0.4861651 0.3890613
vt 0.1122236 0.8145692
vt 0.1096726 0.8018143
vt 0.01018462 0.8018143
vt 0.01273558 0.8145692
vt 0.01018462 0.8416033
vt 0.1077406 0.8416033
vt 0.1077406 0.8285959
vt 0.01018462 0.8285959
vt 0.01018462 0.8150789
vt 0.01018462 0.8280863
vt 0.1077406 0.8280863
vt 0.1077406 0.8150789
vt 0.01273564 0.7885498
vt 0.01018462 0.8013047
vt 0.1096725 0.8013047
vt 0.1122235 0.7885499

usemtl LOW-POLY-COLORS
usemap LOW-POLY-COLORS
f 2/2/2 1/1/1 3/3/3
f 3/3/3 1/1/1 4/4/4
f 6/6/6 5/5/5 7/7/7
f 7/7/7 5/5/5 8/8/8
f 10/10/10 9/9/9 11/11/11
f 11/11/11 9/9/9 12/12/12
f 14/14/14 13/13/13 15/15/15
f 15/15/15 13/13/13 16/16/16
f 18/18/18 17/17/17 19/19/19
f 19/19/19 17/17/17 20/20/20
f 22/22/22 21/21/21 23/23/23
f 23/23/23 21/21/21 24/24/24
f 26/26/26 25/25/25 27/27/27
f 27/27/27 25/25/25 28/28/28
f 30/30/30 29/29/29 31/31/31
f 31/31/31 29/29/29 32/32/32
f 34/34/34 33/33/33 35/35/35
f 35/35/35 33/33/33 36/36/36
