mtllib ./heart_10.mtl
g heart
v -9.426813E-09 0.03863907 0.06885228
v -9.426813E-09 -0.07317787 0.08291929
v -0.06394356 -0.02888548 0.09416135
v -9.426813E-09 0.03863907 0.06885228
v 0.06394355 -0.02888548 0.09416135
v -9.426813E-09 -0.07317787 0.08291929
v -9.426813E-09 0.03863907 -0.06885228
v -0.06394356 -0.02888548 -0.09416135
v -9.426813E-09 -0.07317787 -0.08291929
v -9.426813E-09 0.03863907 -0.06885228
v -9.426813E-09 -0.07317787 -0.08291929
v 0.06394355 -0.02888548 -0.09416135
v -0.2136892 0.04403126 0.05806835
v -0.2263583 0.04289079 -2.118385E-09
v -0.1883114 0.1160548 -2.118385E-09
v -0.174987 0.09866989 0.06894255
v -0.174987 0.09866989 0.06894255
v -0.1883114 0.1160548 -2.118385E-09
v -0.1220233 0.1541216 -2.118385E-09
v -0.1241773 0.1396191 0.05799039
v -0.1001519 -0.1021588 0.06038357
v -0.1827865 -0.01892596 0.07061366
v -0.1323265 0.04373437 0.0991613
v -0.06394356 -0.02888548 0.09416135
v -0.06394356 -0.02888548 0.09416135
v -0.1323265 0.04373437 0.0991613
v -0.07481198 0.1081847 0.07063414
v -9.426813E-09 0.03863907 0.06885228
v -0.1323265 0.04373437 0.0991613
v -0.174987 0.09866989 0.06894255
v -0.1241773 0.1396191 0.05799039
v -0.07481198 0.1081847 0.07063414
v -0.1827865 -0.01892596 0.07061366
v -0.2136892 0.04403126 0.05806835
v -0.174987 0.09866989 0.06894255
v -0.1323265 0.04373437 0.0991613
v -0.2014173 -0.04275203 -2.118385E-09
v -0.1827865 -0.01892596 0.07061366
v -0.1001519 -0.1021588 0.06038357
v -0.1127663 -0.1344116 -2.118385E-09
v -0.2263583 0.04289079 -2.118385E-09
v -0.2136892 0.04403126 0.05806835
v -0.1827865 -0.01892596 0.07061366
v -0.2014173 -0.04275203 -2.118385E-09
v -0.05745229 0.1371352 -2.118385E-09
v -0.07481198 0.1081847 0.07063414
v -0.1241773 0.1396191 0.05799039
v -0.1220233 0.1541216 -2.118385E-09
v -9.426813E-09 0.09915054 -2.118385E-09
v -9.426813E-09 0.03863907 0.06885228
v -0.07481198 0.1081847 0.07063414
v -0.05745229 0.1371352 -2.118385E-09
v -0.1127663 -0.1344116 -2.118385E-09
v -0.1001519 -0.1021588 0.06038357
v -9.426813E-09 -0.1923536 0.04547218
v -9.426813E-09 -0.2245917 -2.118385E-09
v -0.1001519 -0.1021588 0.06038357
v -0.06394356 -0.02888548 0.09416135
v -9.426813E-09 -0.07317787 0.08291929
v -9.426813E-09 -0.1923536 0.04547218
v 0.2136892 0.04403126 0.05806835
v 0.174987 0.09866989 0.06894255
v 0.1883114 0.1160548 -2.118385E-09
v 0.2263583 0.04289079 -2.118385E-09
v 0.174987 0.09866989 0.06894255
v 0.1241773 0.1396191 0.05799039
v 0.1220233 0.1541216 -2.118385E-09
v 0.1883114 0.1160548 -2.118385E-09
v 0.1001519 -0.1021588 0.06038357
v 0.06394355 -0.02888548 0.09416135
v 0.1323264 0.04373437 0.0991613
v 0.1827865 -0.01892596 0.07061366
v 0.06394355 -0.02888548 0.09416135
v -9.426813E-09 0.03863907 0.06885228
v 0.07481197 0.1081847 0.07063414
v 0.1323264 0.04373437 0.0991613
v 0.1323264 0.04373437 0.0991613
v 0.07481197 0.1081847 0.07063414
v 0.1241773 0.1396191 0.05799039
v 0.174987 0.09866989 0.06894255
v 0.1827865 -0.01892596 0.07061366
v 0.1323264 0.04373437 0.0991613
v 0.174987 0.09866989 0.06894255
v 0.2136892 0.04403126 0.05806835
v 0.2014173 -0.04275203 -2.118385E-09
v 0.1127663 -0.1344116 -2.118385E-09
v 0.1001519 -0.1021588 0.06038357
v 0.1827865 -0.01892596 0.07061366
v 0.2263583 0.04289079 -2.118385E-09
v 0.2014173 -0.04275203 -2.118385E-09
v 0.1827865 -0.01892596 0.07061366
v 0.2136892 0.04403126 0.05806835
v 0.05745227 0.1371352 -2.118385E-09
v 0.1220233 0.1541216 -2.118385E-09
v 0.1241773 0.1396191 0.05799039
v 0.07481197 0.1081847 0.07063414
v -9.426813E-09 0.09915054 -2.118385E-09
v 0.05745227 0.1371352 -2.118385E-09
v 0.07481197 0.1081847 0.07063414
v -9.426813E-09 0.03863907 0.06885228
v 0.1127663 -0.1344116 -2.118385E-09
v -9.426813E-09 -0.2245917 -2.118385E-09
v -9.426813E-09 -0.1923536 0.04547218
v 0.1001519 -0.1021588 0.06038357
v 0.1001519 -0.1021588 0.06038357
v -9.426813E-09 -0.1923536 0.04547218
v -9.426813E-09 -0.07317787 0.08291929
v 0.06394355 -0.02888548 0.09416135
v -0.2136892 0.04403126 -0.05806835
v -0.174987 0.09866989 -0.06894255
v -0.1883114 0.1160548 -2.118385E-09
v -0.2263583 0.04289079 -2.118385E-09
v -0.174987 0.09866989 -0.06894255
v -0.1241773 0.1396191 -0.05799039
v -0.1220233 0.1541216 -2.118385E-09
v -0.1883114 0.1160548 -2.118385E-09
v -0.1001519 -0.1021588 -0.06038358
v -0.06394356 -0.02888548 -0.09416135
v -0.1323265 0.04373437 -0.0991613
v -0.1827865 -0.01892596 -0.07061366
v -0.06394356 -0.02888548 -0.09416135
v -9.426813E-09 0.03863907 -0.06885228
v -0.07481198 0.1081847 -0.07063414
v -0.1323265 0.04373437 -0.0991613
v -0.1323265 0.04373437 -0.0991613
v -0.07481198 0.1081847 -0.07063414
v -0.1241773 0.1396191 -0.05799039
v -0.174987 0.09866989 -0.06894255
v -0.1827865 -0.01892596 -0.07061366
v -0.1323265 0.04373437 -0.0991613
v -0.174987 0.09866989 -0.06894255
v -0.2136892 0.04403126 -0.05806835
v -0.2014173 -0.04275203 -2.118385E-09
v -0.1127663 -0.1344116 -2.118385E-09
v -0.1001519 -0.1021588 -0.06038358
v -0.1827865 -0.01892596 -0.07061366
v -0.2263583 0.04289079 -2.118385E-09
v -0.2014173 -0.04275203 -2.118385E-09
v -0.1827865 -0.01892596 -0.07061366
v -0.2136892 0.04403126 -0.05806835
v -0.05745229 0.1371352 -2.118385E-09
v -0.1220233 0.1541216 -2.118385E-09
v -0.1241773 0.1396191 -0.05799039
v -0.07481198 0.1081847 -0.07063414
v -9.426813E-09 0.09915054 -2.118385E-09
v -0.05745229 0.1371352 -2.118385E-09
v -0.07481198 0.1081847 -0.07063414
v -9.426813E-09 0.03863907 -0.06885228
v -0.1127663 -0.1344116 -2.118385E-09
v -9.426813E-09 -0.2245917 -2.118385E-09
v -9.426813E-09 -0.1923536 -0.04547219
v -0.1001519 -0.1021588 -0.06038358
v -0.1001519 -0.1021588 -0.06038358
v -9.426813E-09 -0.1923536 -0.04547219
v -9.426813E-09 -0.07317787 -0.08291929
v -0.06394356 -0.02888548 -0.09416135
v 0.2136892 0.04403126 -0.05806835
v 0.2263583 0.04289079 -2.118385E-09
v 0.1883114 0.1160548 -2.118385E-09
v 0.174987 0.09866989 -0.06894255
v 0.174987 0.09866989 -0.06894255
v 0.1883114 0.1160548 -2.118385E-09
v 0.1220233 0.1541216 -2.118385E-09
v 0.1241773 0.1396191 -0.05799039
v 0.1001519 -0.1021588 -0.06038358
v 0.1827865 -0.01892596 -0.07061366
v 0.1323264 0.04373437 -0.0991613
v 0.06394355 -0.02888548 -0.09416135
v 0.06394355 -0.02888548 -0.09416135
v 0.1323264 0.04373437 -0.0991613
v 0.07481197 0.1081847 -0.07063414
v -9.426813E-09 0.03863907 -0.06885228
v 0.1323264 0.04373437 -0.0991613
v 0.174987 0.09866989 -0.06894255
v 0.1241773 0.1396191 -0.05799039
v 0.07481197 0.1081847 -0.07063414
v 0.1827865 -0.01892596 -0.07061366
v 0.2136892 0.04403126 -0.05806835
v 0.174987 0.09866989 -0.06894255
v 0.1323264 0.04373437 -0.0991613
v 0.2014173 -0.04275203 -2.118385E-09
v 0.1827865 -0.01892596 -0.07061366
v 0.1001519 -0.1021588 -0.06038358
v 0.1127663 -0.1344116 -2.118385E-09
v 0.2263583 0.04289079 -2.118385E-09
v 0.2136892 0.04403126 -0.05806835
v 0.1827865 -0.01892596 -0.07061366
v 0.2014173 -0.04275203 -2.118385E-09
v 0.05745227 0.1371352 -2.118385E-09
v 0.07481197 0.1081847 -0.07063414
v 0.1241773 0.1396191 -0.05799039
v 0.1220233 0.1541216 -2.118385E-09
v -9.426813E-09 0.09915054 -2.118385E-09
v -9.426813E-09 0.03863907 -0.06885228
v 0.07481197 0.1081847 -0.07063414
v 0.05745227 0.1371352 -2.118385E-09
v 0.1127663 -0.1344116 -2.118385E-09
v 0.1001519 -0.1021588 -0.06038358
v -9.426813E-09 -0.1923536 -0.04547219
v -9.426813E-09 -0.2245917 -2.118385E-09
v 0.1001519 -0.1021588 -0.06038358
v 0.06394355 -0.02888548 -0.09416135
v -9.426813E-09 -0.07317787 -0.08291929
v -9.426813E-09 -0.1923536 -0.04547219

vn 0.2524472 0.1207771 0.9600433
vn 0.2524472 0.1207771 0.9600433
vn 0.2524472 0.1207771 0.9600433
vn -0.2524472 0.1207771 0.9600434
vn -0.2524472 0.1207771 0.9600434
vn -0.2524472 0.1207771 0.9600434
vn 0.2524472 0.1207771 -0.9600433
vn 0.2524472 0.1207771 -0.9600433
vn 0.2524472 0.1207771 -0.9600433
vn -0.2524472 0.1207771 -0.9600434
vn -0.2524472 0.1207771 -0.9600434
vn -0.2524472 0.1207771 -0.9600434
vn -0.8420727 0.4857389 0.2344595
vn -0.8420727 0.4857389 0.2344595
vn -0.8420727 0.4857389 0.2344595
vn -0.8420727 0.4857389 0.2344595
vn -0.525306 0.8132005 0.2505164
vn -0.525306 0.8132005 0.2505164
vn -0.525306 0.8132005 0.2505164
vn -0.525306 0.8132005 0.2505164
vn -0.2094222 -0.2940557 0.9325628
vn -0.2094222 -0.2940557 0.9325628
vn -0.2094222 -0.2940557 0.9325628
vn -0.2094222 -0.2940557 0.9325628
vn 0.2261893 0.1821796 0.9568955
vn 0.2261893 0.1821796 0.9568955
vn 0.2261893 0.1821796 0.9568955
vn 0.2261893 0.1821796 0.9568955
vn -0.05325076 0.3978044 0.9159236
vn -0.05325076 0.3978044 0.9159236
vn -0.05325076 0.3978044 0.9159236
vn -0.05325076 0.3978044 0.9159236
vn -0.4502903 0.04253915 0.8918683
vn -0.4502903 0.04253915 0.8918683
vn -0.4502903 0.04253915 0.8918683
vn -0.4502903 0.04253915 0.8918683
vn -0.6333146 -0.6452466 0.4272813
vn -0.6333146 -0.6452466 0.4272813
vn -0.6333146 -0.6452466 0.4272813
vn -0.6333146 -0.6452466 0.4272813
vn -0.9057548 -0.3165966 0.2817354
vn -0.9057548 -0.3165966 0.2817354
vn -0.9057548 -0.3165966 0.2817354
vn -0.9057548 -0.3165966 0.2817354
vn 0.3340013 0.8764676 0.3467673
vn 0.3340013 0.8764676 0.3467673
vn 0.3340013 0.8764676 0.3467673
vn 0.3340013 0.8764676 0.3467673
vn 0.55106 0.6695616 0.4980163
vn 0.55106 0.6695616 0.4980163
vn 0.55106 0.6695616 0.4980163
vn 0.55106 0.6695616 0.4980163
vn -0.5463334 -0.6847736 0.4822912
vn -0.5463334 -0.6847736 0.4822912
vn -0.5463334 -0.6847736 0.4822912
vn -0.5463334 -0.6847736 0.4822912
vn -0.1170221 -0.3252652 0.9383541
vn -0.1170221 -0.3252652 0.9383541
vn -0.1170221 -0.3252652 0.9383541
vn -0.1170221 -0.3252652 0.9383541
vn 0.8420727 0.4857389 0.2344594
vn 0.8420727 0.4857389 0.2344594
vn 0.8420727 0.4857389 0.2344594
vn 0.8420727 0.4857389 0.2344594
vn 0.5253062 0.8132005 0.2505162
vn 0.5253062 0.8132005 0.2505162
vn 0.5253062 0.8132005 0.2505162
vn 0.5253062 0.8132005 0.2505162
vn 0.2094223 -0.2940558 0.9325628
vn 0.2094223 -0.2940558 0.9325628
vn 0.2094223 -0.2940558 0.9325628
vn 0.2094223 -0.2940558 0.9325628
vn -0.2261893 0.1821796 0.9568955
vn -0.2261893 0.1821796 0.9568955
vn -0.2261893 0.1821796 0.9568955
vn -0.2261893 0.1821796 0.9568955
vn 0.05325076 0.3978044 0.9159236
vn 0.05325076 0.3978044 0.9159236
vn 0.05325076 0.3978044 0.9159236
vn 0.05325076 0.3978044 0.9159236
vn 0.4502903 0.04253915 0.8918683
vn 0.4502903 0.04253915 0.8918683
vn 0.4502903 0.04253915 0.8918683
vn 0.4502903 0.04253915 0.8918683
vn 0.6333147 -0.6452466 0.4272814
vn 0.6333147 -0.6452466 0.4272814
vn 0.6333147 -0.6452466 0.4272814
vn 0.6333147 -0.6452466 0.4272814
vn 0.9057548 -0.3165966 0.2817355
vn 0.9057548 -0.3165966 0.2817355
vn 0.9057548 -0.3165966 0.2817355
vn 0.9057548 -0.3165966 0.2817355
vn -0.3340012 0.8764678 0.3467672
vn -0.3340012 0.8764678 0.3467672
vn -0.3340012 0.8764678 0.3467672
vn -0.3340012 0.8764678 0.3467672
vn -0.55106 0.6695615 0.4980164
vn -0.55106 0.6695615 0.4980164
vn -0.55106 0.6695615 0.4980164
vn -0.55106 0.6695615 0.4980164
vn 0.5463334 -0.6847736 0.4822912
vn 0.5463334 -0.6847736 0.4822912
vn 0.5463334 -0.6847736 0.4822912
vn 0.5463334 -0.6847736 0.4822912
vn 0.1170221 -0.3252652 0.9383541
vn 0.1170221 -0.3252652 0.9383541
vn 0.1170221 -0.3252652 0.9383541
vn 0.1170221 -0.3252652 0.9383541
vn -0.8420728 0.4857389 -0.2344594
vn -0.8420728 0.4857389 -0.2344594
vn -0.8420728 0.4857389 -0.2344594
vn -0.8420728 0.4857389 -0.2344594
vn -0.525306 0.8132006 -0.2505164
vn -0.525306 0.8132006 -0.2505164
vn -0.525306 0.8132006 -0.2505164
vn -0.525306 0.8132006 -0.2505164
vn -0.2094222 -0.2940557 -0.9325629
vn -0.2094222 -0.2940557 -0.9325629
vn -0.2094222 -0.2940557 -0.9325629
vn -0.2094222 -0.2940557 -0.9325629
vn 0.2261893 0.1821796 -0.9568955
vn 0.2261893 0.1821796 -0.9568955
vn 0.2261893 0.1821796 -0.9568955
vn 0.2261893 0.1821796 -0.9568955
vn -0.05325076 0.3978044 -0.9159236
vn -0.05325076 0.3978044 -0.9159236
vn -0.05325076 0.3978044 -0.9159236
vn -0.05325076 0.3978044 -0.9159236
vn -0.4502903 0.0425391 -0.8918683
vn -0.4502903 0.0425391 -0.8918683
vn -0.4502903 0.0425391 -0.8918683
vn -0.4502903 0.0425391 -0.8918683
vn -0.6333146 -0.6452467 -0.4272813
vn -0.6333146 -0.6452467 -0.4272813
vn -0.6333146 -0.6452467 -0.4272813
vn -0.6333146 -0.6452467 -0.4272813
vn -0.9057548 -0.3165967 -0.2817354
vn -0.9057548 -0.3165967 -0.2817354
vn -0.9057548 -0.3165967 -0.2817354
vn -0.9057548 -0.3165967 -0.2817354
vn 0.3340011 0.8764678 -0.3467674
vn 0.3340011 0.8764678 -0.3467674
vn 0.3340011 0.8764678 -0.3467674
vn 0.3340011 0.8764678 -0.3467674
vn 0.55106 0.6695615 -0.4980163
vn 0.55106 0.6695615 -0.4980163
vn 0.55106 0.6695615 -0.4980163
vn 0.55106 0.6695615 -0.4980163
vn -0.5463334 -0.6847737 -0.4822912
vn -0.5463334 -0.6847737 -0.4822912
vn -0.5463334 -0.6847737 -0.4822912
vn -0.5463334 -0.6847737 -0.4822912
vn -0.117022 -0.3252651 -0.9383541
vn -0.117022 -0.3252651 -0.9383541
vn -0.117022 -0.3252651 -0.9383541
vn -0.117022 -0.3252651 -0.9383541
vn 0.8420727 0.4857388 -0.2344594
vn 0.8420727 0.4857388 -0.2344594
vn 0.8420727 0.4857388 -0.2344594
vn 0.8420727 0.4857388 -0.2344594
vn 0.5253061 0.8132006 -0.2505163
vn 0.5253061 0.8132006 -0.2505163
vn 0.5253061 0.8132006 -0.2505163
vn 0.5253061 0.8132006 -0.2505163
vn 0.2094223 -0.2940558 -0.9325628
vn 0.2094223 -0.2940558 -0.9325628
vn 0.2094223 -0.2940558 -0.9325628
vn 0.2094223 -0.2940558 -0.9325628
vn -0.2261893 0.1821796 -0.9568955
vn -0.2261893 0.1821796 -0.9568955
vn -0.2261893 0.1821796 -0.9568955
vn -0.2261893 0.1821796 -0.9568955
vn 0.05325076 0.3978045 -0.9159236
vn 0.05325076 0.3978045 -0.9159236
vn 0.05325076 0.3978045 -0.9159236
vn 0.05325076 0.3978045 -0.9159236
vn 0.4502903 0.0425391 -0.8918683
vn 0.4502903 0.0425391 -0.8918683
vn 0.4502903 0.0425391 -0.8918683
vn 0.4502903 0.0425391 -0.8918683
vn 0.6333146 -0.6452466 -0.4272814
vn 0.6333146 -0.6452466 -0.4272814
vn 0.6333146 -0.6452466 -0.4272814
vn 0.6333146 -0.6452466 -0.4272814
vn 0.9057548 -0.3165967 -0.2817354
vn 0.9057548 -0.3165967 -0.2817354
vn 0.9057548 -0.3165967 -0.2817354
vn 0.9057548 -0.3165967 -0.2817354
vn -0.3340011 0.8764678 -0.3467673
vn -0.3340011 0.8764678 -0.3467673
vn -0.3340011 0.8764678 -0.3467673
vn -0.3340011 0.8764678 -0.3467673
vn -0.55106 0.6695615 -0.4980164
vn -0.55106 0.6695615 -0.4980164
vn -0.55106 0.6695615 -0.4980164
vn -0.55106 0.6695615 -0.4980164
vn 0.5463334 -0.6847737 -0.4822912
vn 0.5463334 -0.6847737 -0.4822912
vn 0.5463334 -0.6847737 -0.4822912
vn 0.5463334 -0.6847737 -0.4822912
vn 0.117022 -0.3252651 -0.9383541
vn 0.117022 -0.3252651 -0.9383541
vn 0.117022 -0.3252651 -0.9383541
vn 0.117022 -0.3252651 -0.9383541

vt 0.1799708 0.5572544
vt 0.1907854 0.5640317
vt 0.1898862 0.5549315
vt 0.1799708 0.5572544
vt 0.1822039 0.5671904
vt 0.1907854 0.5640317
vt 0.1627512 0.5464633
vt 0.1605181 0.5365273
vt 0.1519365 0.539686
vt 0.1627512 0.5464633
vt 0.1519365 0.539686
vt 0.1528358 0.5487861
vt 0.1865055 0.5391637
vt 0.185163 0.5298346
vt 0.1791869 0.539371
vt 0.1826097 0.5426589
vt 0.1826097 0.5426589
vt 0.1791869 0.539371
vt 0.1768424 0.5431121
vt 0.1793885 0.544499
vt 0.2008576 0.554431
vt 0.1930649 0.5423299
vt 0.1860487 0.5466279
vt 0.1898862 0.5549315
vt 0.1898862 0.5549315
vt 0.1860487 0.5466279
vt 0.1797297 0.5480852
vt 0.1799708 0.5572544
vt 0.1860487 0.5466279
vt 0.1826097 0.5426589
vt 0.1793885 0.544499
vt 0.1797297 0.5480852
vt 0.1930649 0.5423299
vt 0.1865055 0.5391637
vt 0.1826097 0.5426589
vt 0.1860487 0.5466279
vt 0.2010563 0.5341457
vt 0.1930649 0.5423299
vt 0.2008576 0.554431
vt 0.2118347 0.5533421
vt 0.185163 0.5298346
vt 0.1865055 0.5391637
vt 0.1930649 0.5423299
vt 0.2010563 0.5341457
vt 0.1747984 0.5463737
vt 0.1797297 0.5480852
vt 0.1793885 0.544499
vt 0.1768424 0.5431121
vt 0.171361 0.5518588
vt 0.1799708 0.5572544
vt 0.1797297 0.5480852
vt 0.1747984 0.5463737
vt 0.2118347 0.5533421
vt 0.2008576 0.554431
vt 0.2042858 0.572492
vt 0.2118347 0.5772226
vt 0.2008576 0.554431
vt 0.1898862 0.5549315
vt 0.1907854 0.5640317
vt 0.2042858 0.572492
vt 0.1665398 0.5710233
vt 0.1679866 0.5659933
vt 0.1635351 0.5643467
vt 0.157559 0.5738831
vt 0.1679866 0.5659933
vt 0.168238 0.5622922
vt 0.1658796 0.5606056
vt 0.1635351 0.5643467
vt 0.1865374 0.5772821
vt 0.1822039 0.5671904
vt 0.1730579 0.5673575
vt 0.1722493 0.5755457
vt 0.1822039 0.5671904
vt 0.1799708 0.5572544
vt 0.171614 0.5610355
vt 0.1730579 0.5673575
vt 0.1730579 0.5673575
vt 0.171614 0.5610355
vt 0.168238 0.5622922
vt 0.1679866 0.5659933
vt 0.1722493 0.5755457
vt 0.1730579 0.5673575
vt 0.1679866 0.5659933
vt 0.1665398 0.5710233
vt 0.1683686 0.5863061
vt 0.1903438 0.5876355
vt 0.1865374 0.5772821
vt 0.1722493 0.5755457
vt 0.157559 0.5738831
vt 0.1683686 0.5863061
vt 0.1722493 0.5755457
vt 0.1665398 0.5710233
vt 0.1679236 0.557344
vt 0.1658796 0.5606056
vt 0.168238 0.5622922
vt 0.171614 0.5610355
vt 0.171361 0.5518588
vt 0.1679236 0.557344
vt 0.171614 0.5610355
vt 0.1799708 0.5572544
vt 0.1903438 0.5876355
vt 0.2118347 0.5772226
vt 0.2042858 0.572492
vt 0.1865374 0.5772821
vt 0.1865374 0.5772821
vt 0.2042858 0.572492
vt 0.1907854 0.5640317
vt 0.1822039 0.5671904
vt 0.1761822 0.5326943
vt 0.1747354 0.5377244
vt 0.1791869 0.539371
vt 0.185163 0.5298346
vt 0.1747354 0.5377244
vt 0.174484 0.5414255
vt 0.1768424 0.5431121
vt 0.1791869 0.539371
vt 0.1561846 0.5264356
vt 0.1605181 0.5365273
vt 0.169664 0.5363601
vt 0.1704726 0.5281719
vt 0.1605181 0.5365273
vt 0.1627512 0.5464633
vt 0.171108 0.5426821
vt 0.169664 0.5363601
vt 0.169664 0.5363601
vt 0.171108 0.5426821
vt 0.174484 0.5414255
vt 0.1747354 0.5377244
vt 0.1704726 0.5281719
vt 0.169664 0.5363601
vt 0.1747354 0.5377244
vt 0.1761822 0.5326943
vt 0.1743534 0.5174116
vt 0.1523782 0.5160822
vt 0.1561846 0.5264356
vt 0.1704726 0.5281719
vt 0.185163 0.5298346
vt 0.1743534 0.5174116
vt 0.1704726 0.5281719
vt 0.1761822 0.5326943
vt 0.1747984 0.5463737
vt 0.1768424 0.5431121
vt 0.174484 0.5414255
vt 0.171108 0.5426821
vt 0.171361 0.5518588
vt 0.1747984 0.5463737
vt 0.171108 0.5426821
vt 0.1627512 0.5464633
vt 0.1523782 0.5160822
vt 0.1308873 0.526495
vt 0.1384362 0.5312256
vt 0.1561846 0.5264356
vt 0.1561846 0.5264356
vt 0.1384362 0.5312256
vt 0.1519365 0.539686
vt 0.1605181 0.5365273
vt 0.1562165 0.564554
vt 0.157559 0.5738831
vt 0.1635351 0.5643467
vt 0.1601123 0.5610587
vt 0.1601123 0.5610587
vt 0.1635351 0.5643467
vt 0.1658796 0.5606056
vt 0.1633334 0.5592187
vt 0.1418644 0.5492867
vt 0.1496571 0.5613878
vt 0.1566733 0.5570897
vt 0.1528358 0.5487861
vt 0.1528358 0.5487861
vt 0.1566733 0.5570897
vt 0.1629923 0.5556325
vt 0.1627512 0.5464633
vt 0.1566733 0.5570897
vt 0.1601123 0.5610587
vt 0.1633334 0.5592187
vt 0.1629923 0.5556325
vt 0.1496571 0.5613878
vt 0.1562165 0.564554
vt 0.1601123 0.5610587
vt 0.1566733 0.5570897
vt 0.1416657 0.569572
vt 0.1496571 0.5613878
vt 0.1418644 0.5492867
vt 0.1308873 0.5503756
vt 0.157559 0.5738831
vt 0.1562165 0.564554
vt 0.1496571 0.5613878
vt 0.1416657 0.569572
vt 0.1679236 0.557344
vt 0.1629923 0.5556325
vt 0.1633334 0.5592187
vt 0.1658796 0.5606056
vt 0.171361 0.5518588
vt 0.1627512 0.5464633
vt 0.1629923 0.5556325
vt 0.1679236 0.557344
vt 0.1308873 0.5503756
vt 0.1418644 0.5492867
vt 0.1384362 0.5312256
vt 0.1308873 0.526495
vt 0.1418644 0.5492867
vt 0.1528358 0.5487861
vt 0.1519365 0.539686
vt 0.1384362 0.5312256

usemtl LOW-POLY-COLORS
usemap LOW-POLY-COLORS
f 2/2/2 1/1/1 3/3/3
f 5/5/5 4/4/4 6/6/6
f 8/8/8 7/7/7 9/9/9
f 11/11/11 10/10/10 12/12/12
f 14/14/14 13/13/13 15/15/15
f 15/15/15 13/13/13 16/16/16
f 18/18/18 17/17/17 19/19/19
f 19/19/19 17/17/17 20/20/20
f 22/22/22 21/21/21 23/23/23
f 23/23/23 21/21/21 24/24/24
f 26/26/26 25/25/25 27/27/27
f 27/27/27 25/25/25 28/28/28
f 30/30/30 29/29/29 31/31/31
f 31/31/31 29/29/29 32/32/32
f 34/34/34 33/33/33 35/35/35
f 35/35/35 33/33/33 36/36/36
f 38/38/38 37/37/37 39/39/39
f 39/39/39 37/37/37 40/40/40
f 42/42/42 41/41/41 43/43/43
f 43/43/43 41/41/41 44/44/44
f 46/46/46 45/45/45 47/47/47
f 47/47/47 45/45/45 48/48/48
f 50/50/50 49/49/49 51/51/51
f 51/51/51 49/49/49 52/52/52
f 54/54/54 53/53/53 55/55/55
f 55/55/55 53/53/53 56/56/56
f 58/58/58 57/57/57 59/59/59
f 59/59/59 57/57/57 60/60/60
f 62/62/62 61/61/61 63/63/63
f 63/63/63 61/61/61 64/64/64
f 66/66/66 65/65/65 67/67/67
f 67/67/67 65/65/65 68/68/68
f 70/70/70 69/69/69 71/71/71
f 71/71/71 69/69/69 72/72/72
f 74/74/74 73/73/73 75/75/75
f 75/75/75 73/73/73 76/76/76
f 78/78/78 77/77/77 79/79/79
f 79/79/79 77/77/77 80/80/80
f 82/82/82 81/81/81 83/83/83
f 83/83/83 81/81/81 84/84/84
f 86/86/86 85/85/85 87/87/87
f 87/87/87 85/85/85 88/88/88
f 90/90/90 89/89/89 91/91/91
f 91/91/91 89/89/89 92/92/92
f 94/94/94 93/93/93 95/95/95
f 95/95/95 93/93/93 96/96/96
f 98/98/98 97/97/97 99/99/99
f 99/99/99 97/97/97 100/100/100
f 102/102/102 101/101/101 103/103/103
f 103/103/103 101/101/101 104/104/104
f 106/106/106 105/105/105 107/107/107
f 107/107/107 105/105/105 108/108/108
f 110/110/110 109/109/109 111/111/111
f 111/111/111 109/109/109 112/112/112
f 114/114/114 113/113/113 115/115/115
f 115/115/115 113/113/113 116/116/116
f 118/118/118 117/117/117 119/119/119
f 119/119/119 117/117/117 120/120/120
f 122/122/122 121/121/121 123/123/123
f 123/123/123 121/121/121 124/124/124
f 126/126/126 125/125/125 127/127/127
f 127/127/127 125/125/125 128/128/128
f 130/130/130 129/129/129 131/131/131
f 131/131/131 129/129/129 132/132/132
f 134/134/134 133/133/133 135/135/135
f 135/135/135 133/133/133 136/136/136
f 138/138/138 137/137/137 139/139/139
f 139/139/139 137/137/137 140/140/140
f 142/142/142 141/141/141 143/143/143
f 143/143/143 141/141/141 144/144/144
f 146/146/146 145/145/145 147/147/147
f 147/147/147 145/145/145 148/148/148
f 150/150/150 149/149/149 151/151/151
f 151/151/151 149/149/149 152/152/152
f 154/154/154 153/153/153 155/155/155
f 155/155/155 153/153/153 156/156/156
f 158/158/158 157/157/157 159/159/159
f 159/159/159 157/157/157 160/160/160
f 162/162/162 161/161/161 163/163/163
f 163/163/163 161/161/161 164/164/164
f 166/166/166 165/165/165 167/167/167
f 167/167/167 165/165/165 168/168/168
f 170/170/170 169/169/169 171/171/171
f 171/171/171 169/169/169 172/172/172
f 174/174/174 173/173/173 175/175/175
f 175/175/175 173/173/173 176/176/176
f 178/178/178 177/177/177 179/179/179
f 179/179/179 177/177/177 180/180/180
f 182/182/182 181/181/181 183/183/183
f 183/183/183 181/181/181 184/184/184
f 186/186/186 185/185/185 187/187/187
f 187/187/187 185/185/185 188/188/188
f 190/190/190 189/189/189 191/191/191
f 191/191/191 189/189/189 192/192/192
f 194/194/194 193/193/193 195/195/195
f 195/195/195 193/193/193 196/196/196
f 198/198/198 197/197/197 199/199/199
f 199/199/199 197/197/197 200/200/200
f 202/202/202 201/201/201 203/203/203
f 203/203/203 201/201/201 204/204/204
