mtllib ./fence_6.mtl
g fence
v -0.0505906 0.2359425 0.1108991
v -0.05059037 0.3882377 0.110899
v -1.119242 0.3925356 0.05676212
v -1.119242 0.2402403 0.05676213
v -0.9130229 0.5012785 0.04031626
v -0.9266309 1.111091 0.04223661
v -0.9266309 1.111091 -0.04223687
v -0.9130229 0.5012786 -0.04031636
v -1.052382 0.5011695 0.0401449
v -1.072276 1.096163 0.04227917
v -0.9994177 1.103641 0.08450942
v -0.9828509 0.5012266 0.08045998
v -1.069864 -0.0005950711 0.04032725
v -1.000012 -7.63822E-06 0.08046025
v -0.9828509 0.5012265 -0.08046009
v -0.9994177 1.103641 -0.08450954
v -1.072276 1.096163 -0.04227931
v -1.052382 0.5011695 -0.04014499
v -1.000012 -7.65782E-06 -0.08046022
v -1.069864 -0.0005950808 -0.0403272
v -0.9130229 0.5012786 -0.04031636
v -0.9266309 1.111091 -0.04223687
v -0.9994177 1.103641 -0.08450954
v -0.9828509 0.5012265 -0.08046009
v -0.9304876 0.0005912526 -0.0401384
v -1.000012 -7.65782E-06 -0.08046022
v -0.9828509 0.5012266 0.08045998
v -0.9994177 1.103641 0.08450942
v -0.9266309 1.111091 0.04223661
v -0.9130229 0.5012785 0.04031626
v -1.000012 -7.63822E-06 0.08046025
v -0.9304876 0.0005912624 0.04013843
v -1.052382 0.5011695 -0.04014499
v -1.072276 1.096163 -0.04227931
v -1.072276 1.096163 0.04227917
v -1.052382 0.5011695 0.0401449
v -1.072276 1.096163 0.04227917
v -0.9266309 1.111091 0.04223661
v -0.9994177 1.103641 0.08450942
v -0.9266309 1.111091 -0.04223687
v -1.072276 1.096163 -0.04227931
v -0.9994177 1.103641 -0.08450954
v -1.069864 -0.0005950808 -0.0403272
v -1.052382 0.5011695 -0.04014499
v -1.052382 0.5011695 0.0401449
v -1.069864 -0.0005950711 0.04032725
v -0.9304876 0.0005912624 0.04013843
v -0.9130229 0.5012785 0.04031626
v -0.9130229 0.5012786 -0.04031636
v -0.9304876 0.0005912526 -0.0401384
v 1.058026 0.5011642 0.04019649
v 1.069789 1.085004 0.04232626
v 1.069789 1.085004 -0.04232651
v 1.058026 0.5011643 -0.04019655
v 1.070186 -0.0004131651 0.04029672
v 1.070186 -0.000413175 -0.0402967
v 0.9186963 0.5012405 0.0403142
v 0.9279914 1.122352 0.04218178
v 0.9987941 1.103821 0.08444934
v 0.9884646 0.5012171 0.08045945
v 0.9308186 0.0004113309 0.04016553
v 1.000389 -3.681963E-06 0.08045962
v 0.9884646 0.5012171 -0.08045955
v 0.9987941 1.103821 -0.08444959
v 0.9279914 1.122352 -0.04218203
v 0.9186963 0.5012406 -0.04031427
v 1.000389 -3.701562E-06 -0.0804596
v 0.9308186 0.0004113211 -0.04016548
v 1.058026 0.5011643 -0.04019655
v 1.069789 1.085004 -0.04232651
v 0.9987941 1.103821 -0.08444959
v 0.9884646 0.5012171 -0.08045955
v 0.9884646 0.5012171 0.08045945
v 0.9987941 1.103821 0.08444934
v 1.069789 1.085004 0.04232626
v 1.058026 0.5011642 0.04019649
v 1.000389 -3.681963E-06 0.08045962
v 1.070186 -0.0004131651 0.04029672
v 0.9186963 0.5012406 -0.04031427
v 0.9279914 1.122352 -0.04218203
v 0.9279914 1.122352 0.04218178
v 0.9186963 0.5012405 0.0403142
v 0.9308186 0.0004113211 -0.04016548
v 0.9308186 0.0004113309 0.04016553
v 0.9987941 1.103821 -0.08444959
v 1.069789 1.085004 -0.04232651
v 1.069789 1.085004 0.04232626
v 0.9987941 1.103821 0.08444934
v 0.9279914 1.122352 -0.04218203
v 0.9279914 1.122352 0.04218178
v 1.070186 -0.000413175 -0.0402967
v 1.058026 0.5011643 -0.04019655
v 0.9884646 0.5012171 -0.08045955
v 1.000389 -3.701562E-06 -0.0804596
v -0.05059054 0.2359425 0.1711559
v -1.119242 0.2402403 0.117019
v -1.119242 0.3925356 0.117019
v -0.05059034 0.3882377 0.1711559
v -0.0505906 0.2359425 0.1108991
v 1.110778 0.2402402 0.1170189
v 1.110778 0.2402402 0.05676205
v -0.05059054 0.2359425 0.1711559
v -1.119242 0.2402403 0.05676213
v -1.119242 0.2402403 0.117019
v -1.119242 0.3925356 0.05676212
v -1.119242 0.3925356 0.117019
v -1.119242 0.2402403 0.117019
v -1.119242 0.2402403 0.05676213
v 1.110778 0.2402402 0.05676205
v 1.110778 0.2402402 0.1170189
v 1.110778 0.3925355 0.1170189
v 1.110778 0.3925354 0.05676202
v -0.05059037 0.3882377 0.110899
v -1.119242 0.3925356 0.117019
v -1.119242 0.3925356 0.05676212
v -0.05059034 0.3882377 0.1711559
v 1.110778 0.3925354 0.05676202
v 1.110778 0.3925355 0.1170189
v -0.04368058 0.8207988 0.04017855
v -1.118612 0.9559032 0.05676204
v -1.118612 0.8036078 0.05676205
v -0.0436804 0.9730942 0.04017854
v 1.140569 0.8036077 0.056762
v 1.140569 0.9559031 0.05676192
v -0.04368055 0.8207988 0.1004354
v -1.118612 0.8036078 0.1170189
v -1.118612 0.9559032 0.1170189
v -0.04368037 0.9730942 0.1004354
v 1.140569 0.8036077 0.1170188
v 1.140569 0.9559031 0.1170188
v -0.04368058 0.8207988 0.04017855
v 1.140569 0.8036077 0.1170188
v 1.140569 0.8036077 0.056762
v -0.04368055 0.8207988 0.1004354
v -1.118612 0.8036078 0.05676205
v -1.118612 0.8036078 0.1170189
v -1.118612 0.9559032 0.05676204
v -1.118612 0.9559032 0.1170189
v -1.118612 0.8036078 0.1170189
v -1.118612 0.8036078 0.05676205
v 1.140569 0.8036077 0.056762
v 1.140569 0.8036077 0.1170188
v 1.140569 0.9559031 0.1170188
v 1.140569 0.9559031 0.05676192
v -0.0436804 0.9730942 0.04017854
v -1.118612 0.9559032 0.1170189
v -1.118612 0.9559032 0.05676204
v -0.04368037 0.9730942 0.1004354
v 1.140569 0.9559031 0.05676192
v 1.140569 0.9559031 0.1170188
v -0.1284224 0.522738 0.05676204
v -1.117424 0.6750335 0.05676206
v -1.117424 0.5227381 0.0567621
v -0.1284221 0.6750334 0.05676206
v 1.142134 0.541334 0.05676201
v 1.134156 0.6935126 0.056762
v -0.1284224 0.522738 0.1170189
v -1.117424 0.5227381 0.1170189
v -1.117424 0.6750335 0.117019
v -0.1284221 0.6750334 0.1170189
v 1.142134 0.541334 0.1170188
v 1.134156 0.6935126 0.1170188
v -0.1284224 0.522738 0.05676204
v 1.142134 0.541334 0.1170188
v 1.142134 0.541334 0.05676201
v -0.1284224 0.522738 0.1170189
v -1.117424 0.5227381 0.0567621
v -1.117424 0.5227381 0.1170189
v -1.117424 0.6750335 0.05676206
v -1.117424 0.6750335 0.117019
v -1.117424 0.5227381 0.1170189
v -1.117424 0.5227381 0.0567621
v 1.142134 0.541334 0.05676201
v 1.142134 0.541334 0.1170188
v 1.134156 0.6935126 0.1170188
v 1.134156 0.6935126 0.056762
v -0.1284221 0.6750334 0.05676206
v -1.117424 0.6750335 0.117019
v -1.117424 0.6750335 0.05676206
v -0.1284221 0.6750334 0.1170189
v 1.134156 0.6935126 0.056762
v 1.134156 0.6935126 0.1170188
v 1.110778 0.2402402 0.1170189
v -0.05059054 0.2359425 0.1711559
v -0.05059034 0.3882377 0.1711559
v 1.110778 0.3925355 0.1170189
v 1.110778 0.2402402 0.05676205
v 1.110778 0.3925354 0.05676202
v -0.05059037 0.3882377 0.110899
v -0.0505906 0.2359425 0.1108991
v -1.000012 -7.65782E-06 -0.08046022
v -0.9304876 0.0005912624 0.04013843
v -0.9304876 0.0005912526 -0.0401384
v -1.000012 -7.63822E-06 0.08046025
v -1.069864 -0.0005950808 -0.0403272
v -1.069864 -0.0005950711 0.04032725
v 1.000389 -3.701562E-06 -0.0804596
v 1.070186 -0.0004131651 0.04029672
v 1.070186 -0.000413175 -0.0402967
v 1.000389 -3.681963E-06 0.08045962
v 0.9308186 0.0004113211 -0.04016548
v 0.9308186 0.0004113309 0.04016553

vn 0.05059425 0 -0.9987193
vn 0.05059425 0 -0.9987193
vn 0.05059425 0 -0.9987193
vn 0.05059425 0 -0.9987193
vn 0.9997512 0.02230948 0
vn 0.9997512 0.02230948 0
vn 0.9997512 0.02230948 0
vn 0.9997512 0.02230948 0
vn -0.5006577 -0.01971428 0.8654209
vn -0.5006577 -0.01971428 0.8654209
vn -0.5006577 -0.01971428 0.8654209
vn -0.5006577 -0.01971428 0.8654209
vn -0.4998701 0.0174235 0.865925
vn -0.4998701 0.0174235 0.865925
vn -0.5006576 -0.01971431 -0.8654209
vn -0.5006576 -0.01971431 -0.8654209
vn -0.5006576 -0.01971431 -0.8654209
vn -0.5006576 -0.01971431 -0.8654209
vn -0.49987 0.01742327 -0.8659252
vn -0.49987 0.01742327 -0.8659252
vn 0.5000149 0.008181621 -0.8659781
vn 0.5000149 0.008181621 -0.8659781
vn 0.5000149 0.008181621 -0.8659781
vn 0.5000149 0.008181621 -0.8659781
vn 0.5000328 -0.01743467 -0.8658309
vn 0.5000328 -0.01743467 -0.8658309
vn 0.5000149 0.00818174 0.8659781
vn 0.5000149 0.00818174 0.8659781
vn 0.5000149 0.00818174 0.8659781
vn 0.5000149 0.00818174 0.8659781
vn 0.5000324 -0.01743441 0.8658313
vn 0.5000324 -0.01743441 0.8658313
vn -0.9994414 -0.03341739 0
vn -0.9994414 -0.03341739 0
vn -0.9994414 -0.03341739 0
vn -0.9994414 -0.03341739 0
vn -0.1019583 0.9947886 -8.076618E-05
vn -0.1019583 0.9947886 -8.076618E-05
vn -0.1019583 0.9947886 -8.076618E-05
vn -0.1019583 0.9947886 -8.076618E-05
vn -0.1019587 0.9947886 8.071209E-05
vn -0.1019587 0.9947886 8.071209E-05
vn -0.9993936 0.03482142 0
vn -0.9993936 0.03482142 0
vn -0.9993936 0.03482142 0
vn -0.9993936 0.03482142 0
vn 0.9993923 -0.03486013 0
vn 0.9993923 -0.03486013 0
vn 0.9993923 -0.03486013 0
vn 0.9993923 -0.03486013 0
vn 0.9997972 -0.02014373 0
vn 0.9997972 -0.02014373 0
vn 0.9997972 -0.02014373 0
vn 0.9997972 -0.02014373 0
vn 0.9997062 0.024237 0
vn 0.9997062 0.024237 0
vn -0.5053672 0.003974161 0.8628953
vn -0.5053672 0.003974161 0.8628953
vn -0.5053672 0.003974161 0.8628953
vn -0.5053672 0.003974161 0.8628953
vn -0.4999552 -0.01212594 0.8659663
vn -0.4999552 -0.01212594 0.8659663
vn -0.5053673 0.003973927 -0.8628952
vn -0.5053673 0.003973927 -0.8628952
vn -0.5053673 0.003973927 -0.8628952
vn -0.5053673 0.003973927 -0.8628952
vn -0.4999553 -0.01212614 -0.8659663
vn -0.4999553 -0.01212614 -0.8659663
vn 0.5042455 -0.01384338 -0.8634494
vn 0.5042455 -0.01384338 -0.8634494
vn 0.5042455 -0.01384338 -0.8634494
vn 0.5042455 -0.01384338 -0.8634494
vn 0.5042453 -0.01384313 0.8634495
vn 0.5042453 -0.01384313 0.8634495
vn 0.5042453 -0.01384313 0.8634495
vn 0.5042453 -0.01384313 0.8634495
vn 0.499839 0.01209153 0.8660339
vn 0.499839 0.01209153 0.8660339
vn -0.9998881 0.0149636 0
vn -0.9998881 0.0149636 0
vn -0.9998881 0.0149636 0
vn -0.9998881 0.0149636 0
vn -0.9997072 -0.02419732 0
vn -0.9997072 -0.02419732 0
vn 0.2562018 0.9666234 0
vn 0.2562018 0.9666234 0
vn 0.2562018 0.9666234 0
vn 0.2562018 0.9666234 0
vn 0.2531972 0.9674147 0
vn 0.2531972 0.9674147 0
vn 0.499839 0.01209135 -0.8660339
vn 0.499839 0.01209135 -0.8660339
vn 0.499839 0.01209135 -0.8660339
vn 0.499839 0.01209135 -0.8660339
vn -0.05059423 0 0.9987193
vn -0.05059423 0 0.9987193
vn -0.05059423 0 0.9987193
vn -0.05059423 0 0.9987193
vn 0.003700516 -0.9999932 0
vn 0.003700516 -0.9999932 0
vn 0.003700516 -0.9999932 0
vn 0.003700516 -0.9999932 0
vn -0.004021673 -0.9999919 0
vn -0.004021673 -0.9999919 0
vn -1 0 0
vn -1 0 0
vn -1 0 0
vn -1 0 0
vn 1 0 0
vn 1 0 0
vn 1 0 0
vn 1 0 0
vn 0.004021744 0.9999919 0
vn 0.004021744 0.9999919 0
vn 0.004021744 0.9999919 0
vn 0.004021744 0.9999919 0
vn -0.003700569 0.9999932 0
vn -0.003700569 0.9999932 0
vn -0.01542565 0 -0.999881
vn -0.01542565 0 -0.999881
vn -0.01542565 0 -0.999881
vn -0.01542565 0 -0.999881
vn 0.01400194 0 -0.999902
vn 0.01400194 0 -0.999902
vn 0.01542565 0 0.999881
vn 0.01542565 0 0.999881
vn 0.01542565 0 0.999881
vn 0.01542565 0 0.999881
vn -0.01400196 0 0.999902
vn -0.01400196 0 0.999902
vn -0.01451492 -0.9998946 0
vn -0.01451492 -0.9998946 0
vn -0.01451492 -0.9998946 0
vn -0.01451492 -0.9998946 0
vn 0.01599055 -0.9998722 0
vn 0.01599055 -0.9998722 0
vn -1 0 0
vn -1 0 0
vn -1 0 0
vn -1 0 0
vn 1 0 0
vn 1 0 0
vn 1 0 0
vn 1 0 0
vn -0.01599056 0.9998722 0
vn -0.01599056 0.9998722 0
vn -0.01599056 0.9998722 0
vn -0.01599056 0.9998722 0
vn 0.01451487 0.9998946 0
vn 0.01451487 0.9998946 0
vn 0 0 -1
vn 0 0 -1
vn 0 0 -1
vn 0 0 -1
vn 0 0 -1
vn 0 0 -1
vn 0 0 1
vn 0 0 1
vn 0 0 1
vn 0 0 1
vn 0 0 1
vn 0 0 1
vn 0.01463453 -0.999893 0
vn 0.01463453 -0.999893 0
vn 0.01463453 -0.999893 0
vn 0.01463453 -0.999893 0
vn 0 -1 0
vn 0 -1 0
vn -1 0 0
vn -1 0 0
vn -1 0 0
vn -1 0 0
vn 0.9986287 0.05235233 0
vn 0.9986287 0.05235233 0
vn 0.9986287 0.05235233 0
vn 0.9986287 0.05235233 0
vn 0 1 0
vn 0 1 0
vn 0 1 0
vn 0 1 0
vn -0.01463454 0.999893 0
vn -0.01463454 0.999893 0
vn 0.04656427 0 0.9989153
vn 0.04656427 0 0.9989153
vn 0.04656427 0 0.9989153
vn 0.04656427 0 0.9989153
vn -0.04656426 0 -0.9989153
vn -0.04656426 0 -0.9989153
vn -0.04656426 0 -0.9989153
vn -0.04656426 0 -0.9989153
vn 0.00861395 -0.9999629 0
vn 0.00861395 -0.9999629 0
vn 0.00861395 -0.9999629 0
vn 0.00861395 -0.9999629 0
vn 0.008409325 -0.9999647 0
vn 0.008409325 -0.9999647 0
vn -0.005866559 -0.9999828 0
vn -0.005866559 -0.9999828 0
vn -0.005866559 -0.9999828 0
vn -0.005866559 -0.9999828 0
vn -0.005965339 -0.9999822 0
vn -0.005965339 -0.9999822 0

vt 0.321978 0.8078015
vt 0.3291366 0.8078004
vt 0.3290341 0.7575008
vt 0.3219843 0.7575354
vt 0.2082842 0.7838841
vt 0.2078741 0.8124099
vt 0.211867 0.8124503
vt 0.2120393 0.7839101
vt 0.2007631 0.7837703
vt 0.1999424 0.8117216
vt 0.2038927 0.8120807
vt 0.2045278 0.783833
vt 0.2007525 0.760214
vt 0.2045299 0.7603533
vt 0.1932016 0.7838802
vt 0.1937524 0.8122191
vt 0.1977135 0.8118714
vt 0.1969837 0.7838284
vt 0.1932526 0.7603477
vt 0.1969993 0.7602137
vt 0.2120393 0.7839101
vt 0.211867 0.8124503
vt 0.2158539 0.8122032
vt 0.2158057 0.7839015
vt 0.2120843 0.7604971
vt 0.2158539 0.7603651
vt 0.2045278 0.783833
vt 0.2038927 0.8120807
vt 0.2078741 0.8124099
vt 0.2082842 0.7838841
vt 0.2045299 0.7603533
vt 0.2082938 0.7604933
vt 0.1969837 0.7838284
vt 0.1977135 0.8118714
vt 0.2016886 0.8117542
vt 0.2007631 0.7837703
vt 0.4300256 0.8209496
vt 0.4356403 0.824907
vt 0.4339759 0.8213086
vt 0.433358 0.8281472
vt 0.4277409 0.8241931
vt 0.4294093 0.8277919
vt 0.1969993 0.7602137
vt 0.1969837 0.7838284
vt 0.2007631 0.7837703
vt 0.2007525 0.760214
vt 0.2082938 0.7604933
vt 0.2082842 0.7838841
vt 0.2120393 0.7839101
vt 0.2120843 0.7604971
vt 0.2222861 0.8346978
vt 0.1948034 0.8346682
vt 0.1948095 0.8386173
vt 0.2222861 0.8384901
vt 0.2458757 0.8348153
vt 0.245859 0.8385698
vt 0.2223017 0.8271413
vt 0.1932016 0.8268813
vt 0.1939842 0.8307858
vt 0.222288 0.8309134
vt 0.2457288 0.8273029
vt 0.2458001 0.8310644
vt 0.2223983 0.8196083
vt 0.1941327 0.8190224
vt 0.1932516 0.8229063
vt 0.2223403 0.8233737
vt 0.2458757 0.8197615
vt 0.2457543 0.8235245
vt 0.2222861 0.8384901
vt 0.1948095 0.8386173
vt 0.1940036 0.8425071
vt 0.2222792 0.8422683
vt 0.222288 0.8309134
vt 0.1939842 0.8307858
vt 0.1948034 0.8346682
vt 0.2222861 0.8346978
vt 0.2458001 0.8310644
vt 0.2458757 0.8348153
vt 0.2223403 0.8233737
vt 0.1932516 0.8229063
vt 0.1932016 0.8268813
vt 0.2223017 0.8271413
vt 0.2457543 0.8235245
vt 0.2457288 0.8273029
vt 0.4494732 0.7773641
vt 0.4529184 0.7753882
vt 0.4529184 0.7714174
vt 0.4494732 0.7694416
vt 0.4460402 0.7753814
vt 0.4460402 0.7714242
vt 0.245859 0.8385698
vt 0.2222861 0.8384901
vt 0.2222792 0.8422683
vt 0.2457513 0.8423186
vt 0.3390675 0.8078074
vt 0.3390889 0.7576531
vt 0.3318183 0.7576349
vt 0.3319631 0.8078059
vt 0.3418927 0.8078015
vt 0.3390891 0.8622977
vt 0.3419173 0.8624282
vt 0.3390675 0.8078074
vt 0.3419173 0.7575112
vt 0.3390889 0.7576531
vt 0.4376752 0.8546645
vt 0.4376752 0.8518381
vt 0.4305315 0.8518381
vt 0.4305315 0.8546645
vt 0.4460402 0.8216583
vt 0.4488667 0.8216583
vt 0.4488667 0.8145146
vt 0.4460402 0.8145146
vt 0.3291366 0.8078004
vt 0.3318183 0.7576349
vt 0.3290341 0.7575008
vt 0.3319631 0.8078059
vt 0.3290372 0.8624386
vt 0.3318212 0.8623149
vt 0.3018178 0.8131871
vt 0.2946385 0.8635815
vt 0.3017923 0.8636994
vt 0.2946711 0.8131795
vt 0.3018178 0.7575427
vt 0.2946641 0.7576466
vt 0.2846828 0.8131847
vt 0.284724 0.8637367
vt 0.2918111 0.8636231
vt 0.2918456 0.8131809
vt 0.28475 0.7575008
vt 0.2918367 0.7576074
vt 0.2818495 0.8131822
vt 0.28475 0.7575008
vt 0.2819449 0.757536
vt 0.2846828 0.8131847
vt 0.2819188 0.8636966
vt 0.284724 0.8637367
vt 0.4488667 0.8072678
vt 0.4460402 0.8072678
vt 0.4460402 0.8144115
vt 0.4488667 0.8144115
vt 0.4304284 0.8546645
vt 0.4304284 0.8518381
vt 0.4232848 0.8518381
vt 0.4232848 0.8546645
vt 0.2946711 0.8131795
vt 0.2918111 0.8636231
vt 0.2946385 0.8635815
vt 0.2918456 0.8131809
vt 0.2946641 0.7576466
vt 0.2918367 0.7576074
vt 0.3218749 0.8171028
vt 0.3147126 0.8634529
vt 0.3218369 0.8634568
vt 0.3147279 0.8170472
vt 0.3218749 0.7575025
vt 0.3147325 0.7577723
vt 0.3047521 0.8170983
vt 0.3047682 0.8634532
vt 0.3118926 0.8634523
vt 0.3118989 0.8170463
vt 0.3047535 0.7575008
vt 0.311911 0.7577719
vt 0.3019269 0.8170989
vt 0.3047535 0.7575008
vt 0.301921 0.7575009
vt 0.3047521 0.8170983
vt 0.3019439 0.8634542
vt 0.3047682 0.8634532
vt 0.4460402 0.8071647
vt 0.4488667 0.8071647
vt 0.4488667 0.800021
vt 0.4460402 0.800021
vt 0.4460402 0.7999179
vt 0.4488667 0.7999179
vt 0.4488667 0.7927698
vt 0.4460402 0.7927698
vt 0.3147279 0.8170472
vt 0.3118926 0.8634523
vt 0.3147126 0.8634529
vt 0.3118989 0.8170463
vt 0.3147325 0.7577723
vt 0.311911 0.7577719
vt 0.3390891 0.8622977
vt 0.3390675 0.8078074
vt 0.3319631 0.8078059
vt 0.3318212 0.8623149
vt 0.3219899 0.8624074
vt 0.3290372 0.8624386
vt 0.3291366 0.8078004
vt 0.321978 0.8078015
vt 0.4493015 0.7850154
vt 0.4460402 0.7793585
vt 0.4460402 0.7831241
vt 0.4493015 0.7774672
vt 0.4525782 0.783133
vt 0.4525782 0.7793497
vt 0.4493143 0.7926667
vt 0.4460402 0.7870025
vt 0.4460402 0.7907828
vt 0.4493143 0.7851185
vt 0.4525777 0.7907767
vt 0.4525777 0.7870086

usemtl LOW-POLY-COLORS
usemap LOW-POLY-COLORS
f 2/2/2 1/1/1 3/3/3
f 3/3/3 1/1/1 4/4/4
f 6/6/6 5/5/5 7/7/7
f 7/7/7 5/5/5 8/8/8
f 10/10/10 9/9/9 11/11/11
f 11/11/11 9/9/9 12/12/12
f 9/9/9 13/13/13 12/12/12
f 12/12/12 13/13/13 14/14/14
f 16/16/16 15/15/15 17/17/17
f 17/17/17 15/15/15 18/18/18
f 15/15/15 19/19/19 18/18/18
f 18/18/18 19/19/19 20/20/20
f 22/22/22 21/21/21 23/23/23
f 23/23/23 21/21/21 24/24/24
f 21/21/21 25/25/25 24/24/24
f 24/24/24 25/25/25 26/26/26
f 28/28/28 27/27/27 29/29/29
f 29/29/29 27/27/27 30/30/30
f 27/27/27 31/31/31 30/30/30
f 30/30/30 31/31/31 32/32/32
f 34/34/34 33/33/33 35/35/35
f 35/35/35 33/33/33 36/36/36
f 38/38/38 37/37/37 39/39/39
f 40/40/40 37/37/37 38/38/38
f 40/40/40 41/41/41 37/37/37
f 42/42/42 41/41/41 40/40/40
f 44/44/44 43/43/43 45/45/45
f 45/45/45 43/43/43 46/46/46
f 48/48/48 47/47/47 49/49/49
f 49/49/49 47/47/47 50/50/50
f 52/52/52 51/51/51 53/53/53
f 53/53/53 51/51/51 54/54/54
f 51/51/51 55/55/55 54/54/54
f 54/54/54 55/55/55 56/56/56
f 58/58/58 57/57/57 59/59/59
f 59/59/59 57/57/57 60/60/60
f 57/57/57 61/61/61 60/60/60
f 60/60/60 61/61/61 62/62/62
f 64/64/64 63/63/63 65/65/65
f 65/65/65 63/63/63 66/66/66
f 63/63/63 67/67/67 66/66/66
f 66/66/66 67/67/67 68/68/68
f 70/70/70 69/69/69 71/71/71
f 71/71/71 69/69/69 72/72/72
f 74/74/74 73/73/73 75/75/75
f 75/75/75 73/73/73 76/76/76
f 73/73/73 77/77/77 76/76/76
f 76/76/76 77/77/77 78/78/78
f 80/80/80 79/79/79 81/81/81
f 81/81/81 79/79/79 82/82/82
f 79/79/79 83/83/83 82/82/82
f 82/82/82 83/83/83 84/84/84
f 86/86/86 85/85/85 87/87/87
f 87/87/87 85/85/85 88/88/88
f 85/85/85 89/89/89 88/88/88
f 88/88/88 89/89/89 90/90/90
f 92/92/92 91/91/91 93/93/93
f 93/93/93 91/91/91 94/94/94
f 96/96/96 95/95/95 97/97/97
f 97/97/97 95/95/95 98/98/98
f 100/100/100 99/99/99 101/101/101
f 102/102/102 99/99/99 100/100/100
f 102/102/102 103/103/103 99/99/99
f 104/104/104 103/103/103 102/102/102
f 106/106/106 105/105/105 107/107/107
f 107/107/107 105/105/105 108/108/108
f 110/110/110 109/109/109 111/111/111
f 111/111/111 109/109/109 112/112/112
f 114/114/114 113/113/113 115/115/115
f 116/116/116 113/113/113 114/114/114
f 116/116/116 117/117/117 113/113/113
f 118/118/118 117/117/117 116/116/116
f 120/120/120 119/119/119 121/121/121
f 122/122/122 119/119/119 120/120/120
f 122/122/122 123/123/123 119/119/119
f 124/124/124 123/123/123 122/122/122
f 126/126/126 125/125/125 127/127/127
f 127/127/127 125/125/125 128/128/128
f 125/125/125 129/129/129 128/128/128
f 128/128/128 129/129/129 130/130/130
f 132/132/132 131/131/131 133/133/133
f 134/134/134 131/131/131 132/132/132
f 134/134/134 135/135/135 131/131/131
f 136/136/136 135/135/135 134/134/134
f 138/138/138 137/137/137 139/139/139
f 139/139/139 137/137/137 140/140/140
f 142/142/142 141/141/141 143/143/143
f 143/143/143 141/141/141 144/144/144
f 146/146/146 145/145/145 147/147/147
f 148/148/148 145/145/145 146/146/146
f 148/148/148 149/149/149 145/145/145
f 150/150/150 149/149/149 148/148/148
f 152/152/152 151/151/151 153/153/153
f 154/154/154 151/151/151 152/152/152
f 154/154/154 155/155/155 151/151/151
f 156/156/156 155/155/155 154/154/154
f 158/158/158 157/157/157 159/159/159
f 159/159/159 157/157/157 160/160/160
f 157/157/157 161/161/161 160/160/160
f 160/160/160 161/161/161 162/162/162
f 164/164/164 163/163/163 165/165/165
f 166/166/166 163/163/163 164/164/164
f 166/166/166 167/167/167 163/163/163
f 168/168/168 167/167/167 166/166/166
f 170/170/170 169/169/169 171/171/171
f 171/171/171 169/169/169 172/172/172
f 174/174/174 173/173/173 175/175/175
f 175/175/175 173/173/173 176/176/176
f 178/178/178 177/177/177 179/179/179
f 180/180/180 177/177/177 178/178/178
f 180/180/180 181/181/181 177/177/177
f 182/182/182 181/181/181 180/180/180
f 184/184/184 183/183/183 185/185/185
f 185/185/185 183/183/183 186/186/186
f 188/188/188 187/187/187 189/189/189
f 189/189/189 187/187/187 190/190/190
f 192/192/192 191/191/191 193/193/193
f 194/194/194 191/191/191 192/192/192
f 194/194/194 195/195/195 191/191/191
f 196/196/196 195/195/195 194/194/194
f 198/198/198 197/197/197 199/199/199
f 200/200/200 197/197/197 198/198/198
f 200/200/200 201/201/201 197/197/197
f 202/202/202 201/201/201 200/200/200
