mtllib ./stone-pointy_27.mtl
g stone-pointy
v -0.5354982 0.03622758 0.2227517
v -0.9351866 0.01252951 -0.2343874
v -0.9494504 0.465251 0.00334196
v 0.3751946 0.4988555 -0.2020825
v 0.3789439 0.5127482 -0.05455897
v -0.146195 0.8032506 -0.5128517
v 0.3751946 0.4988555 -0.2020825
v 0.2365516 0.01781253 -0.4896812
v 0.2368454 -0.06191321 -0.38914
v 0.3789439 0.5127482 -0.05455897
v 0.7130239 0.9550608 0.8102356
v 0.9179784 0.9021312 0.6433874
v 1.002209 0.8131236 0.6085875
v 0.7720496 0.8222818 0.8617266
v 0.3415759 0.1420067 0.6144257
v 0.7720496 0.8222818 0.8617266
v 1.002209 0.8131236 0.6085875
v 0.7241591 0.09189764 0.1127225
v -0.7221983 0.8056353 -0.00704539
v -0.146195 0.8032506 -0.5128517
v 0.9179784 0.9021312 0.6433874
v 0.2846141 0.8746526 0.454573
v 0.7130239 0.9550608 0.8102356
v -0.2368454 -0.04223836 0.38914
v 0.3415759 0.1420067 0.6144257
v 0.7241591 0.09189764 0.1127225
v 0.2368454 -0.06191321 -0.38914
v -0.02539752 -0.001742789 -0.5876426
v 0.2368454 -0.06191321 -0.38914
v 0.2365516 0.01781253 -0.4896812
v -0.2218365 0.1574823 -0.8216284
v -0.4656714 -0.04010649 -0.7831459
v -0.2368454 -0.04223836 0.38914
v 0.2368454 -0.06191321 -0.38914
v -0.02539752 -0.001742789 -0.5876426
v -0.5354982 0.03622758 0.2227517
v -0.9351866 0.01252951 -0.2343874
v -0.5354982 0.03622758 0.2227517
v -0.02539752 -0.001742789 -0.5876426
v -0.4656714 -0.04010649 -0.7831459
v -0.2218365 0.1574823 -0.8216284
v -0.146195 0.8032506 -0.5128517
v -0.7221983 0.8056353 -0.00704539
v -0.4656714 -0.04010649 -0.7831459
v -0.9351866 0.01252951 -0.2343874
v -0.9494504 0.465251 0.00334196
v 0.3789439 0.5127482 -0.05455897
v 0.2368454 -0.06191321 -0.38914
v 0.7241591 0.09189764 0.1127225
v 1.002209 0.8131236 0.6085875
v 0.2846141 0.8746526 0.454573
v 0.7130239 0.9550608 0.8102356
v 0.7720496 0.8222818 0.8617266
v 0.3415759 0.1420067 0.6144257
v -0.146195 0.8032506 -0.5128517
v 0.3789439 0.5127482 -0.05455897
v 1.002209 0.8131236 0.6085875
v 0.9179784 0.9021312 0.6433874
v -0.2218365 0.1574823 -0.8216284
v 0.2365516 0.01781253 -0.4896812
v 0.3751946 0.4988555 -0.2020825
v -0.146195 0.8032506 -0.5128517
v -0.9494504 0.465251 0.00334196
v -0.7221983 0.8056353 -0.00704539
v -0.2368454 -0.04223836 0.38914
v -0.5354982 0.03622758 0.2227517
v -0.7221983 0.8056353 -0.00704539
v 0.2846141 0.8746526 0.454573
v 0.3415759 0.1420067 0.6144257
v -0.2368454 -0.04223836 0.38914

vn -0.6958515 -0.350956 0.6265945
vn -0.6958515 -0.350956 0.6265945
vn -0.6958515 -0.350956 0.6265945
vn 0.5425324 0.8349358 -0.09241658
vn 0.5425324 0.8349358 -0.09241658
vn 0.5425324 0.8349358 -0.09241658
vn 0.973689 -0.2158224 -0.07314653
vn 0.973689 -0.2158224 -0.07314653
vn 0.973689 -0.2158224 -0.07314653
vn 0.973689 -0.2158224 -0.07314653
vn 0.6485065 0.4642799 0.6032276
vn 0.6485065 0.4642799 0.6032276
vn 0.6485065 0.4642799 0.6032276
vn 0.6485065 0.4642799 0.6032276
vn 0.6037746 -0.5896761 0.5364122
vn 0.6037746 -0.5896761 0.5364122
vn 0.6037746 -0.5896761 0.5364122
vn 0.6037746 -0.5896761 0.5364122
vn -0.02850294 0.996485 -0.07877344
vn -0.02850294 0.996485 -0.07877344
vn -0.02850294 0.996485 -0.07877344
vn -0.02850294 0.996485 -0.07877344
vn -0.02850294 0.996485 -0.07877344
vn 0.1858156 -0.9665112 0.1769992
vn 0.1858156 -0.9665112 0.1769992
vn 0.1858156 -0.9665112 0.1769992
vn 0.1858156 -0.9665112 0.1769992
vn 0.3364797 -0.6386633 -0.6920191
vn 0.3364797 -0.6386633 -0.6920191
vn 0.3364797 -0.6386633 -0.6920191
vn 0.3364797 -0.6386633 -0.6920191
vn 0.3364797 -0.6386633 -0.6920191
vn -0.1888891 -0.9786138 -0.08146103
vn -0.1888891 -0.9786138 -0.08146103
vn -0.1888891 -0.9786138 -0.08146103
vn -0.1888891 -0.9786138 -0.08146103
vn 0.01411652 -0.9969593 0.0766357
vn 0.01411652 -0.9969593 0.0766357
vn 0.01411652 -0.9969593 0.0766357
vn 0.01411652 -0.9969593 0.0766357
vn -0.6154973 0.4058289 -0.6756226
vn -0.6154973 0.4058289 -0.6756226
vn -0.6154973 0.4058289 -0.6756226
vn -0.6154973 0.4058289 -0.6756226
vn -0.6154973 0.4058289 -0.6756226
vn -0.6154973 0.4058289 -0.6756226
vn 0.6508042 0.2487035 -0.7173565
vn 0.6508042 0.2487035 -0.7173565
vn 0.6508042 0.2487035 -0.7173565
vn 0.6508042 0.2487035 -0.7173565
vn -0.6311007 0.1031673 0.7688098
vn -0.6311007 0.1031673 0.7688098
vn -0.6311007 0.1031673 0.7688098
vn -0.6311007 0.1031673 0.7688098
vn 0.6641443 0.3044738 -0.6827942
vn 0.6641443 0.3044738 -0.6827942
vn 0.6641443 0.3044738 -0.6827942
vn 0.6641443 0.3044738 -0.6827942
vn 0.6115392 0.2761318 -0.7414654
vn 0.6115392 0.2761318 -0.7414654
vn 0.6115392 0.2761318 -0.7414654
vn 0.6115392 0.2761318 -0.7414654
vn -0.3629194 0.1847176 0.9133285
vn -0.3629194 0.1847176 0.9133285
vn -0.3629194 0.1847176 0.9133285
vn -0.3629194 0.1847176 0.9133285
vn -0.4146787 0.1720712 0.8935508
vn -0.4146787 0.1720712 0.8935508
vn -0.4146787 0.1720712 0.8935508
vn -0.4146787 0.1720712 0.8935508

vt 0.7226226 0.825402
vt 0.7456704 0.8028635
vt 0.7295725 0.8016187
vt 0.7055724 0.7885566
vt 0.7065855 0.7912728
vt 0.716876 0.7863594
vt 0.7055724 0.7885566
vt 0.6876379 0.7920216
vt 0.6893515 0.7958158
vt 0.7065855 0.7912728
vt 0.7083142 0.7999256
vt 0.707827 0.7995548
vt 0.707424 0.7996225
vt 0.7081237 0.8002517
vt 0.706824 0.8032177
vt 0.7081237 0.8002517
vt 0.707424 0.7996225
vt 0.7032974 0.799378
vt 0.7224087 0.7981455
vt 0.716876 0.7863594
vt 0.707827 0.7995548
vt 0.7114867 0.7994427
vt 0.7083142 0.7999256
vt 0.7069154 0.8336277
vt 0.706824 0.8032177
vt 0.7032974 0.799378
vt 0.6893515 0.7958158
vt 0.6763871 0.7965913
vt 0.6893515 0.7958158
vt 0.6876379 0.7920216
vt 0.6616033 0.7914153
vt 0.6557652 0.8053295
vt 0.7069154 0.8336277
vt 0.6893515 0.7958158
vt 0.6763871 0.7965913
vt 0.6907511 0.8405421
vt 0.6607895 0.8405421
vt 0.6907511 0.8405421
vt 0.6763871 0.7965913
vt 0.6557652 0.8053295
vt 0.7315063 0.7691488
vt 0.716876 0.7863594
vt 0.7224087 0.7981455
vt 0.7425411 0.7747238
vt 0.7456704 0.8028635
vt 0.7295725 0.8016187
vt 0.7065855 0.7912728
vt 0.6893515 0.7958158
vt 0.7032974 0.799378
vt 0.707424 0.7996225
vt 0.7114867 0.7994427
vt 0.7083142 0.7999256
vt 0.7081237 0.8002517
vt 0.706824 0.8032177
vt 0.716876 0.7863594
vt 0.7065855 0.7912728
vt 0.707424 0.7996225
vt 0.707827 0.7995548
vt 0.7315063 0.7691488
vt 0.7058559 0.7677634
vt 0.7055724 0.7885566
vt 0.716876 0.7863594
vt 0.7295725 0.8016187
vt 0.7224087 0.7981455
vt 0.7069154 0.8336277
vt 0.7226226 0.825402
vt 0.7224087 0.7981455
vt 0.7114867 0.7994427
vt 0.706824 0.8032177
vt 0.7069154 0.8336277

usemtl LOW-POLY-COLORS
usemap LOW-POLY-COLORS
f 2/2/2 1/1/1 3/3/3
f 5/5/5 4/4/4 6/6/6
f 8/8/8 7/7/7 9/9/9
f 9/9/9 7/7/7 10/10/10
f 12/12/12 11/11/11 13/13/13
f 13/13/13 11/11/11 14/14/14
f 16/16/16 15/15/15 17/17/17
f 17/17/17 15/15/15 18/18/18
f 20/20/20 19/19/19 21/21/21
f 22/22/22 21/21/21 19/19/19
f 23/23/23 21/21/21 22/22/22
f 25/25/25 24/24/24 26/26/26
f 26/26/26 24/24/24 27/27/27
f 29/29/29 28/28/28 30/30/30
f 31/31/31 30/30/30 28/28/28
f 32/32/32 31/31/31 28/28/28
f 34/34/34 33/33/33 35/35/35
f 35/35/35 33/33/33 36/36/36
f 38/38/38 37/37/37 39/39/39
f 39/39/39 37/37/37 40/40/40
f 42/42/42 41/41/41 43/43/43
f 44/44/44 43/43/43 41/41/41
f 45/45/45 43/43/43 44/44/44
f 46/46/46 43/43/43 45/45/45
f 48/48/48 47/47/47 49/49/49
f 49/49/49 47/47/47 50/50/50
f 52/52/52 51/51/51 53/53/53
f 53/53/53 51/51/51 54/54/54
f 56/56/56 55/55/55 57/57/57
f 57/57/57 55/55/55 58/58/58
f 60/60/60 59/59/59 61/61/61
f 61/61/61 59/59/59 62/62/62
f 64/64/64 63/63/63 65/65/65
f 65/65/65 63/63/63 66/66/66
f 68/68/68 67/67/67 69/69/69
f 69/69/69 67/67/67 70/70/70
